<svg width="39" height="44" viewBox="0 0 39 44" fill="none" xmlns="http://www.w3.org/2000/svg">
<path d="M38.8947 44L32.432 43.5689L32.3134 43.5621L6.81074 41.8635L6.69129 41.8549L0.22946 41.4256L5.10311 37.1732L5.19249 37.0943L19.7035 24.4373L19.7679 24.3807L22.3074 22.1654L22.3719 22.1088L22.3083 22.0523L19.7679 19.8369L19.7035 19.7812L4.96389 6.92283L4.87451 6.84484L0 2.59242L6.46183 2.16135L6.58128 2.15449L32.3409 0.437926L32.4604 0.430212L38.9231 0L34.6579 4.86175L34.5805 4.95088L25.3824 15.4345L21.9362 12.4282L28.1178 5.38109L28.1952 5.29196L28.0766 5.29967L11.4567 6.40692L11.3372 6.41463L11.4257 6.49262L25.7854 19.0194L25.8499 19.0751L29.327 22.1088L25.8499 25.1426L25.7846 25.1992L11.656 37.5245H11.6552L11.5658 37.6034L11.6844 37.6111L28.0491 38.7012L28.1685 38.7089L28.0903 38.6198L22.0195 31.6995L25.4666 28.6923L34.5513 39.0491L34.6312 39.1391L38.8947 44Z" fill="#ECA028"/>
<path d="M3.49679 37.4898L3.58148 37.4104L16.9021 25.5335L16.9648 25.4773L18.6154 24.0095L16.8369 22.4252L18.6154 20.8409L16.9648 19.3679L16.9013 19.3118L3.35959 7.22934L3.27491 7.15163L0 4.23074V40.6154L3.49679 37.4898ZM4.89076 14.7133L4.97545 14.7867L5.85875 15.5767L5.9265 15.6371L9.62316 18.9345L9.69176 18.9949L9.60707 19.0346L4.97545 21.2907L4.89076 21.3313V14.7133ZM4.89076 23.4138L4.97545 23.4544L9.6799 25.7476L9.76459 25.7873L9.69599 25.8477L5.99933 29.1459L5.93074 29.2055L4.97545 30.0542L4.89076 30.1285V23.4138Z" fill="#ECA028"/>
</svg>
