<svg width="27" height="31" viewBox="0 0 27 31" fill="none" xmlns="http://www.w3.org/2000/svg">
<path d="M26.9803 30.5217L22.4973 30.2227L22.415 30.218L4.72445 29.0397L4.64158 29.0338L0.159171 28.7359L3.53991 25.7861L3.60191 25.7314L13.6678 16.9516L13.7125 16.9123L15.4741 15.3756L15.5188 15.3364L15.4747 15.2971L13.7125 13.7604L13.6678 13.7218L3.44333 4.8022L3.38133 4.7481L0 1.7983L4.48241 1.49928L4.56528 1.49452L22.4341 0.303779L22.517 0.298428L27 0L24.0413 3.37248L23.9877 3.43431L17.6071 10.7066L15.2166 8.62113L19.5047 3.73273L19.5583 3.67091L19.4761 3.67626L7.94721 4.44432L7.86434 4.44967L7.92575 4.50377L17.8867 13.1933L17.9314 13.2319L20.3434 15.3364L17.9314 17.4408L17.8861 17.4801L8.08551 26.0299H8.08492L8.02292 26.0846L8.10519 26.0899L19.457 26.8461L19.5398 26.8514L19.4856 26.7896L15.2744 21.9892L17.6656 19.9032L23.9674 27.0874L24.0229 27.1499L26.9803 30.5217Z" fill="#ECA028"/>
<path d="M2.42564 26.0058L2.48438 25.9507L11.7246 17.7119L11.7681 17.673L12.913 16.6548L11.6794 15.5558L12.913 14.4568L11.7681 13.435L11.724 13.3961L2.33047 5.01481L2.27172 4.9609L0 2.93475V28.1739L2.42564 26.0058ZM3.3926 10.2063L3.45135 10.2572L4.06408 10.8052L4.11107 10.8471L6.67535 13.1344L6.72294 13.1763L6.66419 13.2039L3.45135 14.7688L3.3926 14.797V10.2063ZM3.3926 16.2416L3.45135 16.2697L6.71471 17.8605L6.77346 17.888L6.72587 17.9299L4.16159 20.2178L4.11401 20.2591L3.45135 20.8479L3.3926 20.8994V16.2416Z" fill="#ECA028"/>
</svg>
